<mxfile host="app.diagrams.net" modified="2024-07-01T15:21:47.672Z" agent="Mozilla/5.0 (Windows NT 10.0; Win64; x64) AppleWebKit/537.36 (KHTML, like Gecko) Chrome/126.0.0.0 Safari/537.36" etag="C8vQUXlX3wpB8ufMm10o" version="24.6.4" type="device">
  <diagram name="Page-1" id="FrNZHTJfqQxrG29hOEG-">
    <mxGraphModel dx="1434" dy="738" grid="1" gridSize="10" guides="1" tooltips="1" connect="1" arrows="1" fold="1" page="1" pageScale="1" pageWidth="827" pageHeight="1169" math="0" shadow="0">
      <root>
        <mxCell id="0" />
        <mxCell id="1" parent="0" />
        <mxCell id="v25eYg1_x8J9-jdTeE8G-5" value="" style="edgeStyle=orthogonalEdgeStyle;rounded=0;orthogonalLoop=1;jettySize=auto;html=1;" edge="1" parent="1" source="v25eYg1_x8J9-jdTeE8G-1" target="v25eYg1_x8J9-jdTeE8G-4">
          <mxGeometry relative="1" as="geometry" />
        </mxCell>
        <mxCell id="v25eYg1_x8J9-jdTeE8G-1" value="Start&lt;div&gt;&lt;br&gt;&lt;/div&gt;" style="rounded=1;whiteSpace=wrap;html=1;" vertex="1" parent="1">
          <mxGeometry x="170" y="70" width="120" height="60" as="geometry" />
        </mxCell>
        <mxCell id="v25eYg1_x8J9-jdTeE8G-2" value="end&lt;div&gt;&lt;br&gt;&lt;/div&gt;" style="rounded=1;whiteSpace=wrap;html=1;" vertex="1" parent="1">
          <mxGeometry x="170" y="290" width="120" height="60" as="geometry" />
        </mxCell>
        <mxCell id="v25eYg1_x8J9-jdTeE8G-6" value="" style="edgeStyle=orthogonalEdgeStyle;rounded=0;orthogonalLoop=1;jettySize=auto;html=1;" edge="1" parent="1" source="v25eYg1_x8J9-jdTeE8G-4" target="v25eYg1_x8J9-jdTeE8G-2">
          <mxGeometry relative="1" as="geometry" />
        </mxCell>
        <mxCell id="v25eYg1_x8J9-jdTeE8G-4" value="&quot;tsipi&quot;" style="shape=document;whiteSpace=wrap;html=1;boundedLbl=1;" vertex="1" parent="1">
          <mxGeometry x="170" y="180" width="120" height="60" as="geometry" />
        </mxCell>
      </root>
    </mxGraphModel>
  </diagram>
</mxfile>
